<?xml version="1.0" ?>
<!DOCTYPE svg  PUBLIC '-//W3C//DTD SVG 1.1//EN'  'http://www.w3.org/Graphics/SVG/1.1/DTD/svg11.dtd'>
<!-- Uploaded to: SVG Repo, www.svgrepo.com, Generator: SVG Repo Mixer Tools -->
<svg fill="#000000" width="800px" height="800px" viewBox="0 0 64 64" style="fill-rule:evenodd;clip-rule:evenodd;stroke-linejoin:round;stroke-miterlimit:2;" version="1.1" xml:space="preserve" xmlns="http://www.w3.org/2000/svg" xmlns:serif="http://www.serif.com/" xmlns:xlink="http://www.w3.org/1999/xlink">
<g id="ICON">
<path d="M46,28c0,-0.796 -0.316,-1.559 -0.879,-2.121c-0.562,-0.563 -1.325,-0.879 -2.121,-0.879l-22,0c-0.796,0 -1.559,0.316 -2.121,0.879c-0.563,0.562 -0.879,1.325 -0.879,2.121c0,6.028 0,23.972 0,30c-0,0.796 0.316,1.559 0.879,2.121c0.562,0.563 1.325,0.879 2.121,0.879l22,0c0.796,-0 1.559,-0.316 2.121,-0.879c0.563,-0.562 0.879,-1.325 0.879,-2.121l-0,-30Zm-5.704,-1l-0.387,1.674c-0.314,1.362 -1.526,2.326 -2.923,2.326c-2.53,-0 -7.442,-0 -9.972,0c-1.397,0 -2.609,-0.964 -2.923,-2.326l-0.387,-1.674l-2.704,0c-0.265,0 -0.52,0.105 -0.707,0.293c-0.188,0.187 -0.293,0.442 -0.293,0.707l-0,30c-0,0.265 0.105,0.52 0.293,0.707c0.187,0.188 0.442,0.293 0.707,0.293c-0,0 22,0 22,-0c0.265,-0 0.52,-0.105 0.707,-0.293c0.188,-0.187 0.293,-0.442 0.293,-0.707l0,-30c0,-0.265 -0.105,-0.52 -0.293,-0.707c-0.187,-0.188 -0.442,-0.293 -0.707,-0.293l-2.704,0Zm-8.296,27c-1.104,0 -2,0.896 -2,2c0,1.104 0.896,2 2,2c1.104,0 2,-0.896 2,-2c0,-1.104 -0.896,-2 -2,-2Zm-8,-4c0,0 -1,0 -1,0c-0.552,0 -1,0.448 -1,1c0,0.552 0.448,1 1,1l1,0c0,0.552 0.448,1 1,1c0.552,-0 1,-0.448 1,-1l15,0c0.552,0 1,-0.448 1,-1c0,-0.552 -0.448,-1 -1,-1l-15,0c0,-0.552 -0.448,-1 -1,-1c-0.552,-0 -1,0.448 -1,1Zm12.947,-7.606c0.339,-0.169 0.553,-0.515 0.553,-0.894c-0,-0.379 -0.214,-0.725 -0.553,-0.894l-7.5,-3.75c-0.31,-0.155 -0.678,-0.139 -0.973,0.043c-0.295,0.183 -0.474,0.504 -0.474,0.851l0,7.5c0,0.347 0.179,0.668 0.474,0.851c0.295,0.182 0.663,0.198 0.973,0.043l7.5,-3.75Zm-24.947,-17.894c-0.796,-0 -1.559,0.316 -2.121,0.879c-0.147,0.146 -0.276,0.306 -0.388,0.476c-3.748,1.088 -6.491,4.548 -6.491,8.645c-0,4.097 2.743,7.557 6.491,8.645c0.112,0.17 0.241,0.33 0.388,0.476c0.562,0.563 1.325,0.879 2.121,0.879c1.392,-0 3,-0 3,-0c0.552,0 1,-0.448 1,-1l0,-18c0,-0.552 -0.448,-1 -1,-1l-1,-0l0,-2.5c0,-9.389 7.611,-17 17,-17l2,-0c4.509,0 8.833,1.791 12.021,4.979c3.188,3.188 4.979,7.512 4.979,12.021l0,2.5l-1,-0c-0.552,-0 -1,0.448 -1,1l0,18c0,0.552 0.448,1 1,1l3,-0c0.796,0 1.559,-0.316 2.121,-0.879c0.147,-0.146 0.276,-0.306 0.388,-0.476c3.748,-1.088 6.491,-4.548 6.491,-8.645c0,-4.097 -2.743,-7.557 -6.491,-8.645c-0.112,-0.17 -0.241,-0.33 -0.388,-0.476c-0.562,-0.563 -1.325,-0.879 -2.121,-0.879l0,-2.5c0,-5.039 -2.002,-9.872 -5.565,-13.435c-3.563,-3.563 -8.396,-5.565 -13.435,-5.565l-2,0c-10.493,0 -19,8.507 -19,19l0,2.5Zm22.264,17l-4.264,2.132c0,-0 0,-4.264 0,-4.264l4.264,2.132Zm-25.264,-0.674l-0,-4.826c-0,-0.552 0.448,-1 1,-1c0.552,-0 1,0.448 1,1l-0,5.5c-0,0.265 0.105,0.52 0.293,0.707c0.187,0.188 0.442,0.293 0.707,0.293c0,-0 2,-0 2,0c0,0 0,-16 0,-16l-2,-0c-0.265,-0 -0.52,0.105 -0.707,0.293c-0.188,0.187 -0.293,0.442 -0.293,0.707l-0,5.5c-0,0.552 -0.448,1 -1,1c-0.552,0 -1,-0.448 -1,-1l0,-4.826c-2.364,1.125 -4,3.536 -4,6.326c0,2.79 1.636,5.201 4,6.326Zm43,-14.326l-2,-0c0,-0 0,16 -0,16l2,-0c0.265,0 0.52,-0.105 0.707,-0.293c0.188,-0.187 0.293,-0.442 0.293,-0.707l0,-5.5c0,-0.552 0.448,-1 1,-1c0.552,0 1,0.448 1,1l-0,4.826c2.364,-1.125 4,-3.536 4,-6.326c0,-2.79 -1.636,-5.201 -4,-6.326l0,4.826c0,0.552 -0.448,1 -1,1c-0.552,-0 -1,-0.448 -1,-1l0,-5.5c0,-0.265 -0.105,-0.52 -0.293,-0.707c-0.187,-0.188 -0.442,-0.293 -0.707,-0.293Zm-13.757,0.5l-0.282,1.225c-0.105,0.454 -0.509,0.775 -0.975,0.775l-9.972,0c-0.466,0 -0.87,-0.321 -0.975,-0.775c0,-0 -0.282,-1.225 -0.282,-1.225l12.486,0Zm-7.243,-13.333l0,9.333c-0,0.552 0.448,1 1,1c0.552,0 1,-0.448 1,-1l0,-9.333c-0,-0.552 -0.448,-1 -1,-1c-0.552,-0 -1,0.448 -1,1Zm-4,1.333l0,6.667c-0,0.552 0.448,1 1,1c0.552,-0 1,-0.448 1,-1l0,-6.667c-0,-0.552 -0.448,-1 -1,-1c-0.552,0 -1,0.448 -1,1Zm8,-0l0,6.667c0,0.552 0.448,1 1,1c0.552,-0 1,-0.448 1,-1l0,-6.667c0,-0.552 -0.448,-1 -1,-1c-0.552,-0 -1,0.448 -1,1Zm4,1.333l0,4c0,0.552 0.448,1 1,1c0.552,0 1,-0.448 1,-1l0,-4c0,-0.552 -0.448,-1 -1,-1c-0.552,0 -1,0.448 -1,1Zm-16,0l0,4c0,0.552 0.448,1 1,1c0.552,0 1,-0.448 1,-1l0,-4c0,-0.552 -0.448,-1 -1,-1c-0.552,0 -1,0.448 -1,1Zm20,1.334l0,1.333c-0,0.552 0.448,1 1,1c0.552,0 1,-0.448 1,-1l0,-1.333c-0,-0.552 -0.448,-1 -1,-1c-0.552,-0 -1,0.448 -1,1Zm-24,-0l0,1.333c0,0.552 0.448,1 1,1c0.552,-0 1,-0.448 1,-1l0,-1.333c0,-0.552 -0.448,-1 -1,-1c-0.552,-0 -1,0.448 -1,1Z"/>
</g>
</svg>